<mxfile host="app.diagrams.net" agent="Mozilla/5.0 (Windows NT 10.0; Win64; x64) AppleWebKit/537.36 (KHTML, like Gecko) Chrome/134.0.0.0 Safari/537.36 Edg/134.0.0.0" version="26.1.0">
  <diagram name="第 1 页" id="FB7-vi13J7KBx9cXcJyt">
    <mxGraphModel dx="792" dy="824" grid="1" gridSize="10" guides="1" tooltips="1" connect="1" arrows="1" fold="1" page="1" pageScale="1" pageWidth="827" pageHeight="1169" math="0" shadow="0">
      <root>
        <mxCell id="0" />
        <mxCell id="1" parent="0" />
        <mxCell id="UO9_2LDaeBG2AX7JpYBj-11" style="edgeStyle=orthogonalEdgeStyle;rounded=0;orthogonalLoop=1;jettySize=auto;html=1;exitX=0.5;exitY=1;exitDx=0;exitDy=0;exitPerimeter=0;entryX=0.5;entryY=0;entryDx=0;entryDy=0;" parent="1" source="UO9_2LDaeBG2AX7JpYBj-2" target="UO9_2LDaeBG2AX7JpYBj-3" edge="1">
          <mxGeometry relative="1" as="geometry" />
        </mxCell>
        <mxCell id="UO9_2LDaeBG2AX7JpYBj-2" value="启动Activity" style="strokeWidth=2;html=1;shape=mxgraph.flowchart.terminator;whiteSpace=wrap;" parent="1" vertex="1">
          <mxGeometry x="345" y="80" width="110" height="50" as="geometry" />
        </mxCell>
        <mxCell id="UO9_2LDaeBG2AX7JpYBj-12" style="edgeStyle=orthogonalEdgeStyle;rounded=0;orthogonalLoop=1;jettySize=auto;html=1;exitX=0.5;exitY=1;exitDx=0;exitDy=0;entryX=0.5;entryY=0;entryDx=0;entryDy=0;" parent="1" source="UO9_2LDaeBG2AX7JpYBj-3" target="UO9_2LDaeBG2AX7JpYBj-4" edge="1">
          <mxGeometry relative="1" as="geometry" />
        </mxCell>
        <mxCell id="UO9_2LDaeBG2AX7JpYBj-3" value="onCreate()&lt;br&gt;创建及初始化时" style="rounded=1;whiteSpace=wrap;html=1;strokeWidth=2;" parent="1" vertex="1">
          <mxGeometry x="340" y="160" width="120" height="60" as="geometry" />
        </mxCell>
        <mxCell id="UO9_2LDaeBG2AX7JpYBj-13" style="edgeStyle=orthogonalEdgeStyle;rounded=0;orthogonalLoop=1;jettySize=auto;html=1;exitX=0.5;exitY=1;exitDx=0;exitDy=0;entryX=0.5;entryY=0;entryDx=0;entryDy=0;" parent="1" source="UO9_2LDaeBG2AX7JpYBj-4" target="UO9_2LDaeBG2AX7JpYBj-5" edge="1">
          <mxGeometry relative="1" as="geometry" />
        </mxCell>
        <mxCell id="UO9_2LDaeBG2AX7JpYBj-4" value="onStart()&lt;br&gt;Activity由不可见变为可见时" style="rounded=1;whiteSpace=wrap;html=1;strokeWidth=2;" parent="1" vertex="1">
          <mxGeometry x="340" y="250" width="120" height="60" as="geometry" />
        </mxCell>
        <mxCell id="UO9_2LDaeBG2AX7JpYBj-14" style="edgeStyle=orthogonalEdgeStyle;rounded=0;orthogonalLoop=1;jettySize=auto;html=1;exitX=0.5;exitY=1;exitDx=0;exitDy=0;entryX=0.5;entryY=0;entryDx=0;entryDy=0;entryPerimeter=0;" parent="1" source="UO9_2LDaeBG2AX7JpYBj-5" target="UO9_2LDaeBG2AX7JpYBj-18" edge="1">
          <mxGeometry relative="1" as="geometry" />
        </mxCell>
        <mxCell id="UO9_2LDaeBG2AX7JpYBj-5" value="onResume()&lt;br&gt;Activity准备好交互时" style="rounded=1;whiteSpace=wrap;html=1;strokeWidth=2;" parent="1" vertex="1">
          <mxGeometry x="340" y="340" width="120" height="60" as="geometry" />
        </mxCell>
        <mxCell id="UO9_2LDaeBG2AX7JpYBj-15" style="edgeStyle=orthogonalEdgeStyle;rounded=0;orthogonalLoop=1;jettySize=auto;html=1;exitX=0.5;exitY=1;exitDx=0;exitDy=0;entryX=0.5;entryY=0;entryDx=0;entryDy=0;" parent="1" source="UO9_2LDaeBG2AX7JpYBj-6" target="UO9_2LDaeBG2AX7JpYBj-7" edge="1">
          <mxGeometry relative="1" as="geometry" />
        </mxCell>
        <mxCell id="UO9_2LDaeBG2AX7JpYBj-6" value="onPause()&lt;br&gt;准备启动或恢复另一个Activity时" style="rounded=1;whiteSpace=wrap;html=1;strokeWidth=2;" parent="1" vertex="1">
          <mxGeometry x="340" y="510" width="120" height="60" as="geometry" />
        </mxCell>
        <mxCell id="UO9_2LDaeBG2AX7JpYBj-16" style="edgeStyle=orthogonalEdgeStyle;rounded=0;orthogonalLoop=1;jettySize=auto;html=1;exitX=0.5;exitY=1;exitDx=0;exitDy=0;entryX=0.5;entryY=0;entryDx=0;entryDy=0;" parent="1" source="UO9_2LDaeBG2AX7JpYBj-7" target="UO9_2LDaeBG2AX7JpYBj-9" edge="1">
          <mxGeometry relative="1" as="geometry" />
        </mxCell>
        <mxCell id="DDRxtDNeU1XDhZJklaVk-28" style="edgeStyle=orthogonalEdgeStyle;rounded=0;orthogonalLoop=1;jettySize=auto;html=1;exitX=1;exitY=0.5;exitDx=0;exitDy=0;entryX=0.5;entryY=1;entryDx=0;entryDy=0;" edge="1" parent="1" source="UO9_2LDaeBG2AX7JpYBj-7" target="UO9_2LDaeBG2AX7JpYBj-10">
          <mxGeometry relative="1" as="geometry" />
        </mxCell>
        <mxCell id="UO9_2LDaeBG2AX7JpYBj-7" value="onStop()&lt;br&gt;Activity完全不可见时" style="rounded=1;whiteSpace=wrap;html=1;strokeWidth=2;" parent="1" vertex="1">
          <mxGeometry x="340" y="600" width="120" height="60" as="geometry" />
        </mxCell>
        <mxCell id="UO9_2LDaeBG2AX7JpYBj-8" value="&lt;span style=&quot;color: rgb(0, 0, 0); font-family: Helvetica; font-size: 12px; font-style: normal; font-variant-ligatures: normal; font-variant-caps: normal; font-weight: 400; letter-spacing: normal; orphans: 2; text-align: center; text-indent: 0px; text-transform: none; widows: 2; word-spacing: 0px; -webkit-text-stroke-width: 0px; white-space: normal; background-color: rgb(251, 251, 251); text-decoration-thickness: initial; text-decoration-style: initial; text-decoration-color: initial; display: inline !important; float: none;&quot;&gt;释放资源、保存数据&lt;/span&gt;" style="text;whiteSpace=wrap;html=1;" parent="1" vertex="1">
          <mxGeometry x="470" y="525" width="140" height="30" as="geometry" />
        </mxCell>
        <mxCell id="UO9_2LDaeBG2AX7JpYBj-9" value="onDestroy()&lt;br&gt;Activity销毁前" style="rounded=1;whiteSpace=wrap;html=1;strokeWidth=2;" parent="1" vertex="1">
          <mxGeometry x="340" y="690" width="120" height="60" as="geometry" />
        </mxCell>
        <mxCell id="DDRxtDNeU1XDhZJklaVk-29" style="edgeStyle=orthogonalEdgeStyle;rounded=0;orthogonalLoop=1;jettySize=auto;html=1;exitX=0.5;exitY=0;exitDx=0;exitDy=0;entryX=1;entryY=0.5;entryDx=0;entryDy=0;" edge="1" parent="1" source="UO9_2LDaeBG2AX7JpYBj-10" target="UO9_2LDaeBG2AX7JpYBj-4">
          <mxGeometry relative="1" as="geometry" />
        </mxCell>
        <mxCell id="UO9_2LDaeBG2AX7JpYBj-10" value="onRestart()&lt;br&gt;Activity由停止状态恢复为运行状态前" style="rounded=1;whiteSpace=wrap;html=1;strokeWidth=2;" parent="1" vertex="1">
          <mxGeometry x="540" y="425" width="120" height="60" as="geometry" />
        </mxCell>
        <mxCell id="UO9_2LDaeBG2AX7JpYBj-19" style="edgeStyle=orthogonalEdgeStyle;rounded=0;orthogonalLoop=1;jettySize=auto;html=1;exitX=0.5;exitY=1;exitDx=0;exitDy=0;exitPerimeter=0;entryX=0.5;entryY=0;entryDx=0;entryDy=0;" parent="1" source="UO9_2LDaeBG2AX7JpYBj-18" target="UO9_2LDaeBG2AX7JpYBj-6" edge="1">
          <mxGeometry relative="1" as="geometry" />
        </mxCell>
        <mxCell id="UO9_2LDaeBG2AX7JpYBj-18" value="Activity运行中" style="strokeWidth=2;html=1;shape=mxgraph.flowchart.terminator;whiteSpace=wrap;" parent="1" vertex="1">
          <mxGeometry x="345" y="430" width="110" height="50" as="geometry" />
        </mxCell>
        <mxCell id="DDRxtDNeU1XDhZJklaVk-2" value="退出Activity" style="strokeWidth=2;html=1;shape=mxgraph.flowchart.terminator;whiteSpace=wrap;" vertex="1" parent="1">
          <mxGeometry x="345" y="780" width="110" height="50" as="geometry" />
        </mxCell>
        <mxCell id="DDRxtDNeU1XDhZJklaVk-3" style="edgeStyle=orthogonalEdgeStyle;rounded=0;orthogonalLoop=1;jettySize=auto;html=1;exitX=0.5;exitY=1;exitDx=0;exitDy=0;entryX=0.5;entryY=0;entryDx=0;entryDy=0;entryPerimeter=0;" edge="1" parent="1" source="UO9_2LDaeBG2AX7JpYBj-9" target="DDRxtDNeU1XDhZJklaVk-2">
          <mxGeometry relative="1" as="geometry" />
        </mxCell>
        <mxCell id="DDRxtDNeU1XDhZJklaVk-10" value="可见生存期" style="text;html=1;align=center;verticalAlign=middle;resizable=0;points=[];autosize=1;strokeColor=none;fillColor=none;textDirection=vertical-lr;" vertex="1" parent="1">
          <mxGeometry x="220" y="450" width="80" height="30" as="geometry" />
        </mxCell>
        <mxCell id="DDRxtDNeU1XDhZJklaVk-11" value="前台生存期" style="text;html=1;align=center;verticalAlign=middle;resizable=0;points=[];autosize=1;strokeColor=none;fillColor=none;textDirection=vertical-lr;" vertex="1" parent="1">
          <mxGeometry x="260" y="450" width="80" height="30" as="geometry" />
        </mxCell>
        <mxCell id="DDRxtDNeU1XDhZJklaVk-20" value="" style="shape=curlyBracket;whiteSpace=wrap;html=1;rounded=1;flipH=1;labelPosition=right;verticalLabelPosition=middle;align=left;verticalAlign=middle;rotation=-180;" vertex="1" parent="1">
          <mxGeometry x="310" y="400" width="20" height="110" as="geometry" />
        </mxCell>
        <mxCell id="DDRxtDNeU1XDhZJklaVk-23" value="" style="shape=curlyBracket;whiteSpace=wrap;html=1;rounded=1;flipH=1;labelPosition=right;verticalLabelPosition=middle;align=left;verticalAlign=middle;rotation=-180;" vertex="1" parent="1">
          <mxGeometry x="270" y="310" width="20" height="290" as="geometry" />
        </mxCell>
        <mxCell id="DDRxtDNeU1XDhZJklaVk-24" value="" style="shape=curlyBracket;whiteSpace=wrap;html=1;rounded=1;flipH=1;labelPosition=right;verticalLabelPosition=middle;align=left;verticalAlign=middle;rotation=-180;" vertex="1" parent="1">
          <mxGeometry x="230" y="220" width="20" height="470" as="geometry" />
        </mxCell>
        <mxCell id="DDRxtDNeU1XDhZJklaVk-25" value="完整生存期" style="text;html=1;align=center;verticalAlign=middle;resizable=0;points=[];autosize=1;strokeColor=none;fillColor=none;textDirection=vertical-lr;" vertex="1" parent="1">
          <mxGeometry x="180" y="450" width="80" height="30" as="geometry" />
        </mxCell>
        <mxCell id="DDRxtDNeU1XDhZJklaVk-30" value="&lt;span style=&quot;color: rgb(0, 0, 0); font-family: Helvetica; font-size: 12px; font-style: normal; font-variant-ligatures: normal; font-variant-caps: normal; font-weight: 400; letter-spacing: normal; orphans: 2; text-align: center; text-indent: 0px; text-transform: none; widows: 2; word-spacing: 0px; -webkit-text-stroke-width: 0px; white-space: normal; background-color: rgb(251, 251, 251); text-decoration-thickness: initial; text-decoration-style: initial; text-decoration-color: initial; float: none; display: inline !important;&quot;&gt;返回上一个Activity&lt;/span&gt;" style="text;whiteSpace=wrap;html=1;" vertex="1" parent="1">
          <mxGeometry x="470" y="600" width="110" height="30" as="geometry" />
        </mxCell>
      </root>
    </mxGraphModel>
  </diagram>
</mxfile>
